<svg width="1363" height="1077" viewBox="0 0 1363 1077" fill="none" xmlns="http://www.w3.org/2000/svg">
<rect y="389" width="1363" height="688" rx="188" fill="#DC143C"/>
<rect x="14.5" y="406.5" width="1333" height="661" rx="193.5" fill="#1E1E1E" stroke="black"/>
<rect x="71.5" y="718.5" width="82" height="71" rx="15.5" fill="#DC143C" stroke="black"/>
<rect x="164.5" y="718.5" width="82" height="71" rx="15.5" fill="#DC143C" stroke="black"/>
<rect x="258.5" y="718.5" width="83" height="71" rx="15.5" fill="#DC143C" stroke="black"/>
<rect x="352.5" y="718.5" width="82" height="71" rx="15.5" fill="#DC143C" stroke="black"/>
<rect x="447.5" y="718.5" width="82" height="71" rx="15.5" fill="#DC143C" stroke="black"/>
<rect x="541.5" y="718.5" width="82" height="71" rx="15.5" fill="#DC143C" stroke="black"/>
<rect x="635.5" y="718.5" width="83" height="71" rx="15.5" fill="#DC143C" stroke="black"/>
<rect x="730.5" y="718.5" width="82" height="71" rx="15.5" fill="#DC143C" stroke="black"/>
<rect x="824.5" y="718.5" width="82" height="71" rx="15.5" fill="#DC143C" stroke="black"/>
<rect x="918.5" y="718.5" width="82" height="71" rx="15.5" fill="#DC143C" stroke="black"/>
<rect x="1013.5" y="718.5" width="82" height="71" rx="15.5" fill="#DC143C" stroke="black"/>
<rect x="1105.5" y="718.5" width="82" height="71" rx="15.5" fill="#DC143C" stroke="black"/>
<rect x="1199.5" y="718.5" width="82" height="71" rx="15.5" fill="#DC143C" stroke="black"/>
<rect x="76.5" y="798.5" width="82" height="71" rx="15.5" fill="#DC143C" stroke="black"/>
<rect x="169.5" y="798.5" width="82" height="71" rx="15.5" fill="#DC143C" stroke="black"/>
<rect x="263.5" y="798.5" width="82" height="71" rx="15.5" fill="#DC143C" stroke="black"/>
<rect x="355.5" y="798.5" width="82" height="71" rx="15.5" fill="#DC143C" stroke="black"/>
<rect x="449.5" y="798.5" width="82" height="71" rx="15.5" fill="#DC143C" stroke="black"/>
<rect x="541.5" y="798.5" width="82" height="71" rx="15.5" fill="#DC143C" stroke="black"/>
<rect x="634.5" y="798.5" width="83" height="71" rx="15.5" fill="#DC143C" stroke="black"/>
<rect x="728.5" y="798.5" width="82" height="71" rx="15.5" fill="#DC143C" stroke="black"/>
<rect x="821.5" y="798.5" width="82" height="71" rx="15.5" fill="#DC143C" stroke="black"/>
<rect x="915.5" y="798.5" width="82" height="71" rx="15.5" fill="#DC143C" stroke="black"/>
<rect x="1008.5" y="798.5" width="82" height="71" rx="15.5" fill="#DC143C" stroke="black"/>
<rect x="1100.5" y="798.5" width="82" height="71" rx="15.5" fill="#DC143C" stroke="black"/>
<rect x="1193.5" y="798.5" width="82" height="71" rx="15.5" stroke="black"/>
<rect x="87.5" y="878.5" width="82" height="71" rx="15.5" stroke="black"/>
<rect x="180.5" y="878.5" width="82" height="71" rx="15.5" fill="#DC143C" stroke="black"/>
<rect x="270.5" y="878.5" width="82" height="71" rx="15.5" fill="#DC143C" stroke="black"/>
<rect x="361.5" y="878.5" width="82" height="71" rx="15.5" fill="#DC143C" stroke="black"/>
<rect x="452.5" y="878.5" width="82" height="71" rx="15.5" fill="#DC143C" stroke="black"/>
<rect x="542.5" y="878.5" width="82" height="71" rx="15.5" fill="#DC143C" stroke="black"/>
<rect x="634.5" y="878.5" width="83" height="71" rx="15.5" fill="#DC143C" stroke="black"/>
<rect x="726.5" y="878.5" width="82" height="71" rx="15.5" fill="#DC143C" stroke="black"/>
<rect x="817.5" y="878.5" width="82" height="71" rx="15.5" fill="#DC143C" stroke="black"/>
<rect x="908.5" y="878.5" width="82" height="71" rx="15.5" fill="#DC143C" stroke="black"/>
<rect x="999.5" y="878.5" width="82" height="71" rx="15.5" fill="#DC143C" stroke="black"/>
<rect x="1089.5" y="878.5" width="82" height="71" rx="15.5" stroke="black"/>
<rect x="1181.5" y="878.5" width="82" height="71" rx="15.5" stroke="black"/>
<path d="M120.781 957.5H172C180.56 957.5 187.5 964.44 187.5 973V1013C187.5 1021.56 180.56 1028.5 172 1028.5H161.219C130.446 1028.5 105.5 1003.55 105.5 972.781C105.5 964.342 112.342 957.5 120.781 957.5Z" stroke="black"/>
<rect x="196.5" y="957.5" width="82" height="71" rx="15.5" stroke="black"/>
<rect x="284.5" y="957.5" width="82" height="71" rx="15.5" stroke="black"/>
<rect x="372.5" y="957.5" width="82" height="71" rx="15.5" stroke="black"/>
<rect x="460.5" y="957.5" width="82" height="71" rx="15.5" fill="#DC143C" stroke="black"/>
<rect x="550.5" y="957.5" width="253" height="71" rx="15.5" stroke="black"/>
<rect x="809.5" y="957.5" width="82" height="71" rx="15.5" fill="#DC143C" stroke="black"/>
<rect x="899.5" y="957.5" width="82" height="71" rx="15.5" stroke="black"/>
<rect x="986.5" y="957.5" width="82" height="71" rx="15.5" stroke="black"/>
<rect x="1073.5" y="957.5" width="82" height="71" rx="15.5" stroke="black"/>
<path d="M1179 957.5H1230.22C1238.66 957.5 1245.5 964.342 1245.5 972.781C1245.5 1003.55 1220.55 1028.5 1189.78 1028.5H1179C1170.44 1028.5 1163.5 1021.56 1163.5 1013V973C1163.5 964.44 1170.44 957.5 1179 957.5Z" stroke="black"/>
<rect width="1363" height="688" rx="188" fill="#DC143C"/>
<rect x="30.5" y="30.5" width="1302" height="630" rx="187.5" fill="#0B0B0B" stroke="black"/>
<path d="M218 30.5H1152.5V660.5H218C114.447 660.5 30.5 576.553 30.5 473V218C30.5 114.851 113.792 31.1563 216.787 30.5039L218 30.5Z" fill="black" stroke="black"/>
<rect x="240.5" y="73.5" width="807" height="543" fill="#B9958D" stroke="black"/>
<rect x="98" y="269" width="28" height="158" rx="14" fill="#B5B5B5"/>
<path d="M1226.5 291.5C1255.24 291.5 1278.5 314.579 1278.5 343C1278.5 371.421 1255.24 394.5 1226.5 394.5C1197.76 394.5 1174.5 371.421 1174.5 343C1174.5 314.579 1197.76 291.5 1226.5 291.5Z" stroke="#670418" stroke-width="5"/>
<mask id="path-59-inside-1_180_39" fill="white">
<path d="M1253 370H1217V369.914L1193 343.5L1217 317.086V317H1253V370Z"/>
</mask>
<path d="M1253 370V375H1258V370H1253ZM1217 370H1212V375H1217V370ZM1217 369.914H1222V367.982L1220.7 366.552L1217 369.914ZM1193 343.5L1189.3 340.138L1186.24 343.5L1189.3 346.862L1193 343.5ZM1217 317.086L1220.7 320.448L1222 319.018V317.086H1217ZM1217 317V312H1212V317H1217ZM1253 317H1258V312H1253V317ZM1253 370V365H1217V370V375H1253V370ZM1217 370H1222V369.914H1217H1212V370H1217ZM1217 369.914L1220.7 366.552L1196.7 340.138L1193 343.5L1189.3 346.862L1213.3 373.276L1217 369.914ZM1193 343.5L1196.7 346.862L1220.7 320.448L1217 317.086L1213.3 313.724L1189.3 340.138L1193 343.5ZM1217 317.086H1222V317H1217H1212V317.086H1217ZM1217 317V322H1253V317V312H1217V317ZM1253 317H1248V370H1253H1258V317H1253Z" fill="#670418" mask="url(#path-59-inside-1_180_39)"/>
<rect x="1228.5" y="335.5" width="22" height="15" stroke="#670418" stroke-width="5"/>
<path d="M179.986 777V749.24H183.706V777H179.986ZM174.306 752.6V749.24H183.306V752.6H174.306Z" fill="white"/>
<path d="M267.772 777V768.39C267.772 764.946 269.276 762.923 272.282 762.322L280.687 760.641C282.081 760.368 282.778 759.452 282.778 757.894V754.614C282.778 752.755 281.849 751.826 279.99 751.826H268.592V750.145L270.437 748.71H279.949C284.131 748.71 286.222 750.801 286.222 754.983V757.648C286.222 761.092 284.719 763.115 281.712 763.716L273.307 765.397C271.913 765.67 271.216 766.586 271.216 768.144V773.884H286.222V777H267.772Z" fill="white"/>
<path d="M360.182 775.565V773.884H371.99C373.849 773.884 374.778 772.955 374.778 771.096V766.504C374.778 764.645 373.849 763.716 371.99 763.716H363.216V760.6H371.99C373.849 760.6 374.778 759.671 374.778 757.812V754.614C374.778 752.755 373.849 751.826 371.99 751.826H360.592V750.145L362.437 748.71H371.949C376.131 748.71 378.222 750.801 378.222 754.983V757.976C378.222 759.069 377.881 759.958 377.197 760.641L375.762 762.076L377.197 763.511C377.881 764.194 378.222 765.083 378.222 766.176V770.727C378.222 774.909 376.131 777 371.949 777H362.027L360.182 775.565Z" fill="white"/>
<path d="M454.772 771.711V768.841L464.243 748.71H467.113L467.564 749.53L458.585 768.595H469.778V759.37H473.222V777H469.778V771.711H454.772Z" fill="white"/>
<path d="M550.362 775.565V773.884H562.99C564.849 773.884 565.778 772.955 565.778 771.096V766.094C565.778 764.235 564.849 763.306 562.99 763.306H550.772V748.71H567.992V751.826H554.216V760.19H562.949C567.131 760.19 569.222 762.281 569.222 766.463V770.727C569.222 774.909 567.131 777 562.949 777H552.207L550.362 775.565Z" fill="white"/>
<path d="M644.772 770.727V756.254C644.772 751.225 647.287 748.71 652.316 748.71H659.737L661.582 750.145V751.826H652.152C649.528 751.826 648.216 753.138 648.216 755.762V760.19H656.949C661.131 760.19 663.222 762.281 663.222 766.463V770.727C663.222 774.909 661.131 777 656.949 777H651.045C646.863 777 644.772 774.909 644.772 770.727ZM648.216 771.096C648.216 772.955 649.146 773.884 651.004 773.884H656.99C658.849 773.884 659.778 772.955 659.778 771.096V766.094C659.778 764.235 658.849 763.306 656.99 763.306H648.216V771.096Z" fill="white"/>
<path d="M738.772 751.826V748.71H757.222V755.885L746.152 777H743.077L742.626 776.18L753.778 755.106V751.826H738.772Z" fill="white"/>
<path d="M833.772 770.727V766.176C833.772 765.083 834.114 764.194 834.797 763.511L836.232 762.076L834.797 760.641C834.114 759.958 833.772 759.069 833.772 757.976V754.983C833.772 750.801 835.863 748.71 840.045 748.71H845.949C850.131 748.71 852.222 750.801 852.222 754.983V757.976C852.222 759.069 851.881 759.958 851.197 760.641L849.762 762.076L851.197 763.511C851.881 764.194 852.222 765.083 852.222 766.176V770.727C852.222 774.909 850.131 777 845.949 777H840.045C835.863 777 833.772 774.909 833.772 770.727ZM837.216 771.096C837.216 772.955 838.146 773.884 840.004 773.884H845.99C847.849 773.884 848.778 772.955 848.778 771.096V766.504C848.778 764.645 847.849 763.716 845.99 763.716H840.004C838.146 763.716 837.216 764.645 837.216 766.504V771.096ZM837.216 757.812C837.216 759.671 838.146 760.6 840.004 760.6H845.99C847.849 760.6 848.778 759.671 848.778 757.812V754.614C848.778 752.755 847.849 751.826 845.99 751.826H840.004C838.146 751.826 837.216 752.755 837.216 754.614V757.812Z" fill="white"/>
<path d="M927.772 759.247V754.983C927.772 750.801 929.863 748.71 934.045 748.71H939.949C944.131 748.71 946.222 750.801 946.222 754.983V769.456C946.222 774.485 943.708 777 938.678 777H930.847L929.002 775.565V773.884H938.842C941.466 773.884 942.778 772.572 942.778 769.948V765.52H934.045C929.863 765.52 927.772 763.429 927.772 759.247ZM931.216 759.616C931.216 761.475 932.146 762.404 934.004 762.404H942.778V754.614C942.778 752.755 941.849 751.826 939.99 751.826H934.004C932.146 751.826 931.216 752.755 931.216 754.614V759.616Z" fill="white"/>
<path d="M1022.77 770.727V754.983C1022.77 750.801 1024.86 748.71 1029.05 748.71H1034.95C1039.13 748.71 1041.22 750.801 1041.22 754.983V770.727C1041.22 774.909 1039.13 777 1034.95 777H1029.05C1024.86 777 1022.77 774.909 1022.77 770.727ZM1026.22 771.096C1026.22 772.955 1027.15 773.884 1029 773.884H1034.99C1036.85 773.884 1037.78 772.955 1037.78 771.096V754.614C1037.78 752.755 1036.85 751.826 1034.99 751.826H1029C1027.15 751.826 1026.22 752.755 1026.22 754.614V771.096Z" fill="white"/>
<path d="M178.426 853.727V837.983C178.426 833.801 180.517 831.71 184.699 831.71H194.293C198.475 831.71 200.566 833.801 200.566 837.983V853.768C200.566 857.567 198.776 859.604 195.195 859.877L197.983 865.33L197.532 866.15H194.621L191.505 860H184.699C180.517 860 178.426 857.909 178.426 853.727ZM181.87 854.096C181.87 855.955 182.799 856.884 184.658 856.884H194.334C196.193 856.884 197.122 855.955 197.122 854.096V837.614C197.122 835.755 196.193 834.826 194.334 834.826H184.658C182.799 834.826 181.87 835.755 181.87 837.614V854.096Z" fill="white"/>
<path d="M271.372 832.448L271.905 831.71H274.652L280.556 856.884H281.089L287.28 834.826H290.724L296.874 856.884H297.448L303.352 831.71H306.099L306.632 832.448L300.113 860H294.414L289.002 840.402L283.59 860H277.891L271.372 832.448Z" fill="white"/>
<path d="M366.098 860V831.71H384.548V834.826H369.542V843.6H383.318V846.716H369.542V856.884H384.548V860H366.098Z" fill="white"/>
<path d="M460.077 860V831.71H473.484C477.666 831.71 479.757 833.801 479.757 837.983V842.493C479.757 846.046 478.24 848.069 475.206 848.561L480.577 859.18L480.126 860H477.215L471.516 848.766H463.521V860H460.077ZM463.521 845.65H473.525C475.384 845.65 476.313 844.721 476.313 842.862V837.614C476.313 835.755 475.384 834.826 473.525 834.826H463.521V845.65Z" fill="white"/>
<path d="M642.928 832.448L643.379 831.71H646.29L653.998 846.019L661.706 831.71H664.617L665.068 832.448L655.72 849.504V860H652.276V849.504L642.928 832.448Z" fill="white"/>
<path d="M738.83 853.727V831.71H742.274V854.096C742.274 855.955 743.203 856.884 745.062 856.884H753.918C755.777 856.884 756.706 855.955 756.706 854.096V831.71H760.15V853.727C760.15 857.909 758.059 860 753.877 860H745.103C740.921 860 738.83 857.909 738.83 853.727Z" fill="white"/>
<path d="M836.785 860V831.71H840.229V860H836.785Z" fill="white"/>
<path d="M926.426 853.727V837.983C926.426 833.801 928.517 831.71 932.699 831.71H942.293C946.475 831.71 948.566 833.801 948.566 837.983V853.727C948.566 857.909 946.475 860 942.293 860H932.699C928.517 860 926.426 857.909 926.426 853.727ZM929.87 854.096C929.87 855.955 930.799 856.884 932.658 856.884H942.334C944.193 856.884 945.122 855.955 945.122 854.096V837.614C945.122 835.755 944.193 834.826 942.334 834.826H932.658C930.799 834.826 929.87 835.755 929.87 837.614V854.096Z" fill="white"/>
<path d="M1021.78 860V831.71H1035.18C1039.37 831.71 1041.46 833.801 1041.46 837.983V843.313C1041.46 847.495 1039.37 849.586 1035.18 849.586H1025.22V860H1021.78ZM1025.22 846.47H1035.23C1037.08 846.47 1038.01 845.541 1038.01 843.682V837.614C1038.01 835.755 1037.08 834.826 1035.23 834.826H1025.22V846.47Z" fill="white"/>
<path d="M189.907 939.262L199.173 911.71H204.831L214.097 939.262L213.605 940H210.776L208.439 932.866H195.565L193.228 940H190.399L189.907 939.262ZM196.59 929.75H207.414L202.494 914.826H201.51L196.59 929.75Z" fill="white"/>
<path d="M279.568 938.565V936.884H292.196C294.055 936.884 294.984 935.955 294.984 934.096V930.775C294.984 929.217 294.287 928.301 292.893 928.028L284.078 926.224C281.072 925.623 279.568 923.614 279.568 920.197V917.983C279.568 913.801 281.659 911.71 285.841 911.71H295.763L297.608 913.145V914.826H285.8C283.942 914.826 283.012 915.755 283.012 917.614V920.402C283.012 921.96 283.709 922.876 285.103 923.149L293.918 924.912C296.925 925.513 298.428 927.536 298.428 930.98V933.727C298.428 937.909 296.337 940 292.155 940H281.413L279.568 938.565Z" fill="white"/>
<path d="M370.756 940V911.71H381.826C388.66 911.71 392.076 915.127 392.076 921.96V929.75C392.076 936.583 388.66 940 381.826 940H370.756ZM374.2 936.884H382.031C386.432 936.884 388.632 934.684 388.632 930.283V921.427C388.632 917.026 386.432 914.826 382.031 914.826H374.2V936.884Z" fill="white"/>
<path d="M462.999 940V911.71H481.449V914.826H466.443V924.83H480.219V927.946H466.443V940H462.999Z" fill="white"/>
<path d="M551.547 933.727V917.983C551.547 913.801 553.638 911.71 557.82 911.71H570.202L572.047 913.145V914.826H557.779C555.92 914.826 554.991 915.755 554.991 917.614V934.096C554.991 935.955 555.92 936.884 557.779 936.884H569.423V926.716H562.453V923.6H572.867V940H557.82C553.638 940 551.547 937.909 551.547 933.727Z" fill="white"/>
<path d="M645.836 940V911.71H649.28V923.6H663.712V911.71H667.156V940H663.712V926.716H649.28V940H645.836Z" fill="white"/>
<path d="M737.588 933.727V929.34H741.032V934.096C741.032 935.955 741.961 936.884 743.82 936.884H750.216C752.075 936.884 753.004 935.955 753.004 934.096V914.826H743.738V911.71H756.448V933.727C756.448 937.909 754.357 940 750.175 940H743.861C739.679 940 737.588 937.909 737.588 933.727Z" fill="white"/>
<path d="M829.777 940V911.71H833.221V926.224L846.218 911.71H849.375L849.744 912.489L839.986 923.354L850.687 939.221L850.359 940H847.161L837.731 925.855L833.221 930.816V940H829.777Z" fill="white"/>
<path d="M920.739 940V911.71H924.183V936.884H937.959V940H920.739Z" fill="white"/>
<path d="M1106.51 923.727V907.983C1106.51 903.801 1108.6 901.71 1112.79 901.71H1122.38C1126.56 901.71 1128.65 903.801 1128.65 907.983V923.727C1128.65 927.909 1126.56 930 1122.38 930H1112.79C1108.6 930 1106.51 927.909 1106.51 923.727ZM1109.96 924.096C1109.96 925.955 1110.89 926.884 1112.75 926.884H1122.42C1124.28 926.884 1125.21 925.955 1125.21 924.096V907.614C1125.21 905.755 1124.28 904.826 1122.42 904.826H1112.75C1110.89 904.826 1109.96 905.755 1109.96 907.614V924.096Z" fill="white"/>
<path d="M1135.63 930V901.71H1139.08V916.224L1152.07 901.71H1155.23L1155.6 902.489L1145.84 913.354L1156.54 929.221L1156.21 930H1153.02L1143.59 915.855L1139.08 920.816V930H1135.63Z" fill="white"/>
<path d="M207.258 1019V1016.25L223.084 993.826H207.668V990.71H227.348V993.457L211.522 1015.88H227.758V1019H207.258Z" fill="white"/>
<path d="M292.718 1018.22L302.066 1004.45L293.251 991.489L293.62 990.71H296.613L303.993 1001.78L311.373 990.71H314.366L314.735 991.489L305.92 1004.45L315.268 1018.22L314.899 1019H311.906L303.993 1007.11L296.08 1019H293.087L292.718 1018.22Z" fill="white"/>
<path d="M380.768 1012.73V996.983C380.768 992.801 382.859 990.71 387.041 990.71H398.603L400.448 992.145V993.826H387C385.141 993.826 384.212 994.755 384.212 996.614V1013.1C384.212 1014.95 385.141 1015.88 387 1015.88H400.448V1017.57L398.603 1019H387.041C382.859 1019 380.768 1016.91 380.768 1012.73Z" fill="white"/>
<path d="M467.108 991.448L467.6 990.71H470.552L478.506 1015.88H479.49L487.485 990.71H490.396L490.888 991.448L481.95 1019H476.046L467.108 991.448Z" fill="white"/>
<path d="M818.997 1019V990.71H831.994C836.176 990.71 838.267 992.801 838.267 996.983V999.812C838.267 1000.74 837.994 1001.53 837.447 1002.19L836.012 1003.91L837.734 1005.35C838.636 1006.08 839.087 1007.18 839.087 1008.63V1012.73C839.087 1016.91 836.996 1019 832.814 1019H818.997ZM822.441 1015.88H832.855C834.714 1015.88 835.643 1014.95 835.643 1013.1V1008.5C835.643 1006.65 834.714 1005.72 832.855 1005.72H822.441V1015.88ZM822.441 1002.6H832.035C833.894 1002.6 834.823 1001.67 834.823 999.812V996.614C834.823 994.755 833.894 993.826 832.035 993.826H822.441V1002.6Z" fill="white"/>
<path d="M909.936 1019V990.71H913.749L928.632 1013.67V990.71H932.076V1019H928.263L913.38 996.04V1019H909.936Z" fill="white"/>
<path d="M995.993 1019V990.71H1000.54L1010.01 1010.8L1019.44 990.71H1024V1019H1020.55V995.876L1011.61 1014.9H1008.37L999.437 995.876V1019H995.993Z" fill="white"/>
<path d="M549.352 834.826V831.71H571.656V834.826H562.226V860H558.782V834.826H549.352Z" fill="white"/>
<path d="M132.427 1006V981.16H148.627V983.896H135.451V992.68H147.547V995.416H135.451V1006H132.427Z" fill="#670418"/>
<path d="M152.599 1006V987.28H162.679C166.279 987.28 168.079 989.08 168.079 992.68V1006H165.199V992.32C165.199 990.64 164.359 989.8 162.679 989.8H155.479V1006H152.599Z" fill="#670418"/>
<path d="M95.0762 924.88V923.568H104.932C106.383 923.568 107.108 922.843 107.108 921.392V918.8C107.108 917.584 106.564 916.869 105.476 916.656L98.5962 915.248C96.2495 914.779 95.0762 913.211 95.0762 910.544V908.816C95.0762 905.552 96.7082 903.92 99.9722 903.92H107.716L109.156 905.04V906.352H99.9402C98.4895 906.352 97.7642 907.077 97.7642 908.528V910.704C97.7642 911.92 98.3082 912.635 99.3962 912.848L106.276 914.224C108.623 914.693 109.796 916.272 109.796 918.96V921.104C109.796 924.368 108.164 926 104.9 926H96.5162L95.0762 924.88Z" fill="white"/>
<path d="M114.279 926V902.32H116.839V909.36H123.239C126.439 909.36 128.039 910.96 128.039 914.16V926H125.479V913.84C125.479 912.347 124.732 911.6 123.239 911.6H116.839V926H114.279Z" fill="white"/>
<path d="M132.901 906.256V903.248H135.717V906.256H132.901ZM133.029 926V909.36H135.589V926H133.029Z" fill="white"/>
<path d="M140.716 926V907.12C140.716 903.92 142.316 902.32 145.516 902.32H148.396L149.676 903.28V904.56H145.516C144.023 904.56 143.276 905.307 143.276 906.8V909.36H149.356V911.6H143.276V926H140.716Z" fill="white"/>
<path d="M152.744 921.2V903.92H155.304V909.36H161.384V911.6H155.304V921.52C155.304 923.013 156.051 923.76 157.544 923.76H161.704V925.04L160.424 926H157.544C154.344 926 152.744 924.4 152.744 921.2Z" fill="white"/>
<path d="M622.924 1003.57V1001.88H635.552C637.411 1001.88 638.34 1000.95 638.34 999.096V995.775C638.34 994.217 637.643 993.301 636.249 993.028L627.434 991.224C624.428 990.623 622.924 988.614 622.924 985.197V982.983C622.924 978.801 625.015 976.71 629.197 976.71H639.119L640.964 978.145V979.826H629.156C627.298 979.826 626.368 980.755 626.368 982.614V985.402C626.368 986.96 627.065 987.876 628.459 988.149L637.274 989.912C640.281 990.513 641.784 992.536 641.784 995.98V998.727C641.784 1002.91 639.693 1005 635.511 1005H624.769L622.924 1003.57Z" fill="white"/>
<path d="M647.527 1013.2V983.68H659.008C663.108 983.68 665.157 985.73 665.157 989.83V998.85C665.157 1002.95 663.108 1005 659.008 1005H650.807V1013.2H647.527ZM650.807 1002.13H659.008C660.921 1002.13 661.878 1001.17 661.878 999.26V989.42C661.878 987.507 660.921 986.55 659.008 986.55H650.807V1002.13Z" fill="white"/>
<path d="M676.434 1005C672.306 1005 670.243 1002.94 670.243 998.809C670.243 994.682 672.306 992.618 676.434 992.618H683.937V989.42C683.937 987.507 682.98 986.55 681.067 986.55H672.293V984.91L673.933 983.68H681.067C685.167 983.68 687.217 985.73 687.217 989.83V1005H676.434ZM673.523 999.26C673.523 1001.17 674.479 1002.13 676.393 1002.13H683.937V995.283H676.393C674.479 995.283 673.523 996.24 673.523 998.153V999.26Z" fill="white"/>
<path d="M693.284 998.85V989.83C693.284 985.73 695.334 983.68 699.434 983.68H707.47L709.11 984.91V986.55H699.434C697.521 986.55 696.564 987.507 696.564 989.42V999.26C696.564 1001.17 697.521 1002.13 699.434 1002.13H709.11V1003.77L707.47 1005H699.434C695.334 1005 693.284 1002.95 693.284 998.85Z" fill="white"/>
<path d="M713.945 998.85V989.83C713.945 985.73 715.995 983.68 720.095 983.68H725.425C729.525 983.68 731.575 985.73 731.575 989.83V995.611H717.225V999.26C717.225 1001.17 718.181 1002.13 720.095 1002.13H730.755V1003.77L729.115 1005H720.095C715.995 1005 713.945 1002.95 713.945 998.85ZM717.225 992.946H728.295V989.42C728.295 987.507 727.338 986.55 725.425 986.55H720.095C718.181 986.55 717.225 987.507 717.225 989.42V992.946Z" fill="white"/>
<path d="M1175.54 1019V1014.57H1179.51V1019H1175.54Z" fill="white"/>
<path d="M225.406 742.5C224.76 742.5 224.177 742.359 223.656 742.078C223.135 741.786 222.651 741.453 222.203 741.078C221.755 740.703 221.312 740.375 220.875 740.094C220.448 739.802 220 739.656 219.531 739.656C219.052 739.656 218.604 739.818 218.187 740.141C217.771 740.453 217.37 740.974 216.984 741.703L215.578 740.719C216.151 739.677 216.786 738.922 217.484 738.453C218.193 737.984 218.896 737.75 219.594 737.75C220.25 737.75 220.838 737.896 221.359 738.188C221.88 738.469 222.365 738.797 222.812 739.172C223.271 739.536 223.713 739.865 224.141 740.156C224.568 740.438 225.01 740.578 225.469 740.578C225.948 740.578 226.396 740.422 226.812 740.109C227.229 739.786 227.625 739.266 228 738.547L229.453 739.594C228.859 740.604 228.213 741.344 227.516 741.812C226.818 742.271 226.115 742.5 225.406 742.5Z" fill="#670418"/>
<path d="M320.297 751.078C318.151 751.078 316.208 750.625 314.469 749.719C312.729 748.812 311.344 747.484 310.312 745.734C309.292 743.984 308.781 741.844 308.781 739.312C308.781 737.104 309.141 735.109 309.859 733.328C310.588 731.547 311.588 730.016 312.859 728.734C314.13 727.453 315.583 726.474 317.219 725.797C318.865 725.109 320.604 724.766 322.437 724.766C324.635 724.766 326.536 725.224 328.141 726.141C329.755 727.047 331 728.318 331.875 729.953C332.75 731.578 333.187 733.469 333.187 735.625C333.187 737.062 332.99 738.328 332.594 739.422C332.198 740.505 331.677 741.417 331.031 742.156C330.396 742.885 329.698 743.438 328.937 743.812C328.177 744.177 327.427 744.359 326.687 744.359C325.781 744.359 325.016 744.151 324.391 743.734C323.776 743.318 323.411 742.693 323.297 741.859H323.234C322.693 742.495 322.073 743.031 321.375 743.469C320.677 743.906 319.963 744.125 319.234 744.125C318.13 744.125 317.193 743.729 316.422 742.938C315.661 742.135 315.281 740.984 315.281 739.484C315.281 738.62 315.427 737.74 315.719 736.844C316.01 735.948 316.432 735.125 316.984 734.375C317.536 733.615 318.198 733.005 318.969 732.547C319.74 732.089 320.609 731.859 321.578 731.859C322.745 731.859 323.635 732.385 324.25 733.438H324.312L324.687 732.125H326.359L325.078 738.656C324.463 741.292 325.078 742.609 326.922 742.609C327.62 742.609 328.307 742.333 328.984 741.781C329.672 741.229 330.24 740.443 330.687 739.422C331.146 738.391 331.375 737.156 331.375 735.719C331.375 733.927 331.026 732.339 330.328 730.953C329.63 729.557 328.599 728.464 327.234 727.672C325.88 726.88 324.213 726.484 322.234 726.484C320.766 726.484 319.338 726.786 317.953 727.391C316.578 727.984 315.338 728.844 314.234 729.969C313.141 731.083 312.271 732.422 311.625 733.984C310.979 735.547 310.656 737.292 310.656 739.219C310.656 741.354 311.083 743.177 311.937 744.688C312.802 746.198 313.974 747.349 315.453 748.141C316.943 748.932 318.625 749.328 320.5 749.328C321.521 749.328 322.484 749.193 323.391 748.922C324.307 748.651 325.135 748.292 325.875 747.844L326.562 749.359C324.677 750.505 322.588 751.078 320.297 751.078ZM319.703 742.344C320.161 742.344 320.646 742.188 321.156 741.875C321.677 741.562 322.234 741.062 322.828 740.375L323.766 735.062C323.432 734.531 323.099 734.161 322.766 733.953C322.443 733.745 322.057 733.641 321.609 733.641C320.724 733.641 319.958 733.943 319.312 734.547C318.677 735.141 318.187 735.88 317.844 736.766C317.5 737.641 317.328 738.5 317.328 739.344C317.328 740.417 317.552 741.188 318 741.656C318.458 742.115 319.026 742.344 319.703 742.344Z" fill="#670418"/>
<path d="M409.359 751L410.172 744.25H407.5V742.438H410.375L411 737.453H408.172V735.672H411.203L411.984 729.562H413.641L412.875 735.672H417.328L418.125 729.562H419.781L419.016 735.672H421.656V737.453H418.812L418.187 742.438H421V744.25H417.969L417.172 751H415.484L416.312 744.25H411.828L411.031 751H409.359ZM412.062 742.438H416.516L417.141 737.453H412.687L412.062 742.438Z" fill="#670418"/>
<path d="M511.437 751.391C510.167 751.391 508.974 751.156 507.859 750.688C506.745 750.208 505.823 749.557 505.094 748.734L506.312 747.188C506.989 747.823 507.755 748.333 508.609 748.719C509.474 749.104 510.417 749.297 511.437 749.297C512.677 749.297 513.609 748.958 514.234 748.281C514.87 747.594 515.187 746.698 515.187 745.594C515.187 744.802 514.963 744.125 514.516 743.562C514.068 743 513.489 742.5 512.781 742.062C512.083 741.625 511.338 741.198 510.547 740.781C509.766 740.354 509.021 739.891 508.312 739.391C507.614 738.88 507.042 738.281 506.594 737.594C506.146 736.896 505.922 736.057 505.922 735.078C505.922 733.984 506.167 733.026 506.656 732.203C507.156 731.37 507.844 730.724 508.719 730.266C509.604 729.797 510.62 729.562 511.766 729.562C513.036 729.562 514.109 729.802 514.984 730.281C515.859 730.76 516.609 731.38 517.234 732.141L515.859 733.5C515.349 732.917 514.766 732.469 514.109 732.156C513.453 731.833 512.672 731.672 511.766 731.672C510.755 731.672 509.937 731.979 509.312 732.594C508.698 733.198 508.391 733.979 508.391 734.938C508.391 735.667 508.614 736.292 509.062 736.812C509.51 737.323 510.083 737.786 510.781 738.203C511.489 738.62 512.239 739.042 513.031 739.469C513.823 739.885 514.568 740.354 515.266 740.875C515.974 741.396 516.552 742.021 517 742.75C517.448 743.479 517.672 744.365 517.672 745.406C517.672 747.219 517.099 748.672 515.953 749.766C514.807 750.849 513.302 751.391 511.437 751.391ZM510.703 754.625V750.547H512.594V754.625H510.703ZM510.703 730.531V726.328H512.594V730.531H510.703Z" fill="#670418"/>
<path d="M599.469 742.594C598 742.594 596.818 742.005 595.922 740.828C595.026 739.641 594.578 737.948 594.578 735.75C594.578 733.583 595.026 731.911 595.922 730.734C596.818 729.547 598 728.953 599.469 728.953C600.958 728.953 602.141 729.547 603.016 730.734C603.901 731.911 604.344 733.583 604.344 735.75C604.344 737.948 603.901 739.641 603.016 740.828C602.141 742.005 600.958 742.594 599.469 742.594ZM599.469 741.031C600.344 741.031 601.052 740.583 601.594 739.688C602.135 738.792 602.406 737.479 602.406 735.75C602.406 734.01 602.135 732.708 601.594 731.844C601.052 730.969 600.344 730.531 599.469 730.531C598.594 730.531 597.885 730.969 597.344 731.844C596.802 732.708 596.531 734.01 596.531 735.75C596.531 737.479 596.802 738.792 597.344 739.688C597.885 740.583 598.594 741.031 599.469 741.031ZM600.125 751.391L612.047 728.938H613.797L601.844 751.391H600.125ZM614.469 751.391C613 751.391 611.818 750.802 610.922 749.625C610.026 748.438 609.578 746.745 609.578 744.547C609.578 742.38 610.026 740.708 610.922 739.531C611.818 738.344 613 737.75 614.469 737.75C615.958 737.75 617.141 738.344 618.016 739.531C618.901 740.708 619.344 742.38 619.344 744.547C619.344 746.745 618.901 748.438 618.016 749.625C617.141 750.802 615.958 751.391 614.469 751.391ZM614.469 749.828C615.344 749.828 616.052 749.38 616.594 748.484C617.135 747.589 617.406 746.276 617.406 744.547C617.406 742.807 617.135 741.505 616.594 740.641C616.052 739.766 615.344 739.328 614.469 739.328C613.594 739.328 612.885 739.766 612.344 740.641C611.802 741.505 611.531 742.807 611.531 744.547C611.531 746.276 611.802 747.589 612.344 748.484C612.885 749.38 613.594 749.828 614.469 749.828Z" fill="#670418"/>
<path d="M687.359 741.609L692.375 728.906H694.656L699.641 741.609H697.422L695.219 735.672L693.562 731.281H693.437L691.812 735.672L689.578 741.609H687.359Z" fill="#670418"/>
<path d="M787.641 751.391C786.37 751.391 785.24 751.141 784.25 750.641C783.271 750.13 782.5 749.427 781.937 748.531C781.385 747.635 781.109 746.604 781.109 745.438C781.109 744.375 781.344 743.443 781.812 742.641C782.292 741.828 782.906 741.104 783.656 740.469C784.406 739.833 785.198 739.245 786.031 738.703C786.875 738.151 787.672 737.604 788.422 737.062C789.172 736.521 789.781 735.943 790.25 735.328C790.729 734.714 790.969 734.016 790.969 733.234C790.969 732.589 790.807 732.021 790.484 731.531C790.161 731.031 789.63 730.781 788.891 730.781C788.057 730.781 787.391 731.089 786.891 731.703C786.401 732.318 786.156 733.078 786.156 733.984C786.156 735.016 786.401 736.109 786.891 737.266C787.391 738.411 788.052 739.557 788.875 740.703C789.708 741.849 790.63 742.938 791.641 743.969C792.651 745 793.672 745.906 794.703 746.688C796.432 747.969 798.016 748.839 799.453 749.297L798.766 751.391C797.922 751.151 797.026 750.781 796.078 750.281C795.141 749.781 794.177 749.146 793.187 748.375C792.021 747.448 790.885 746.401 789.781 745.234C788.677 744.057 787.687 742.828 786.812 741.547C785.937 740.255 785.24 738.969 784.719 737.688C784.208 736.406 783.953 735.193 783.953 734.047C783.953 733.089 784.161 732.224 784.578 731.453C784.995 730.682 785.573 730.073 786.312 729.625C787.052 729.167 787.911 728.938 788.891 728.938C790.193 728.938 791.208 729.339 791.937 730.141C792.677 730.943 793.047 731.964 793.047 733.203C793.047 734.12 792.818 734.948 792.359 735.688C791.901 736.427 791.312 737.109 790.594 737.734C789.875 738.349 789.115 738.943 788.312 739.516C787.51 740.078 786.75 740.651 786.031 741.234C785.312 741.807 784.724 742.422 784.266 743.078C783.807 743.734 783.578 744.464 783.578 745.266C783.578 746.505 784 747.505 784.844 748.266C785.687 749.016 786.719 749.391 787.937 749.391C788.844 749.391 789.724 749.151 790.578 748.672C791.432 748.193 792.213 747.562 792.922 746.781C793.818 745.823 794.583 744.724 795.219 743.484C795.865 742.234 796.396 740.859 796.812 739.359H799.187C798.708 740.974 798.099 742.516 797.359 743.984C796.63 745.453 795.745 746.792 794.703 748C793.797 749.01 792.766 749.828 791.609 750.453C790.463 751.078 789.141 751.391 787.641 751.391Z" fill="#670418"/>
<path d="M879.687 736.922L878.422 736.031L880.281 732.969L877.141 731.641L877.609 730.234L880.937 731.047L881.234 727.516H882.75L883.047 731.016L886.375 730.234L886.875 731.641L883.672 732.969L885.547 736.031L884.297 736.922L882.031 734.156L879.687 736.922Z" fill="#670418"/>
<path d="M980.141 756.797C978.776 754.589 977.708 752.271 976.937 749.844C976.177 747.406 975.797 744.74 975.797 741.844C975.797 738.938 976.177 736.266 976.937 733.828C977.708 731.391 978.776 729.068 980.141 726.859L981.703 727.625C980.432 729.719 979.479 731.984 978.844 734.422C978.219 736.849 977.906 739.323 977.906 741.844C977.906 744.365 978.219 746.839 978.844 749.266C979.479 751.682 980.432 753.938 981.703 756.031L980.141 756.797Z" fill="#670418"/>
<path d="M1059.86 756.797L1058.28 756.031C1059.55 753.938 1060.51 751.682 1061.14 749.266C1061.78 746.839 1062.09 744.365 1062.09 741.844C1062.09 739.323 1061.78 736.849 1061.14 734.422C1060.51 731.984 1059.55 729.719 1058.28 727.625L1059.86 726.859C1061.22 729.068 1062.29 731.391 1063.06 733.828C1063.83 736.266 1064.22 738.938 1064.22 741.844C1064.22 744.74 1063.83 747.406 1063.06 749.844C1062.29 752.271 1061.22 754.589 1059.86 756.797Z" fill="#670418"/>
<path d="M220.75 821.719V819.766H228.266V821.719H220.75Z" fill="#670418"/>
<path d="M315.641 833.109V831.359H331.344V833.109H315.641Z" fill="#670418"/>
<path d="M408.469 825.547V819.078H402.469V817.172H408.469V810.703H410.516V817.172H416.531V819.078H410.516V825.547H408.469Z" fill="#670418"/>
<path d="M508.469 815.562V813.656H522.531V815.562H508.469ZM508.469 822.594V820.688H522.531V822.594H508.469Z" fill="#670418"/>
<path d="M589.187 834V805.656H594.953V807.109H591.094V832.547H594.953V834H589.187Z" fill="#670418"/>
<path d="M681.016 834V832.547H684.906V807.109H681.016V805.656H686.812V834H681.016Z" fill="#670418"/>
<path d="M784.547 834C783.255 834 782.297 833.698 781.672 833.094C781.057 832.49 780.75 831.333 780.75 829.625C780.75 828.448 780.792 827.37 780.875 826.391C780.969 825.411 781.016 824.359 781.016 823.234C781.016 822.589 780.823 822 780.437 821.469C780.052 820.927 779.297 820.656 778.172 820.656V819.016C779.297 819.016 780.052 818.75 780.437 818.219C780.823 817.688 781.016 817.104 781.016 816.469C781.016 815.333 780.969 814.276 780.875 813.297C780.792 812.318 780.75 811.234 780.75 810.047C780.75 808.328 781.057 807.167 781.672 806.562C782.297 805.958 783.255 805.656 784.547 805.656H785.953V807.109H785.109C784.193 807.109 783.578 807.354 783.266 807.844C782.953 808.323 782.797 809.099 782.797 810.172C782.797 811.182 782.823 812.156 782.875 813.094C782.927 814.031 782.953 815.068 782.953 816.203C782.953 817.266 782.812 818.078 782.531 818.641C782.25 819.193 781.755 819.568 781.047 819.766V819.906C781.755 820.104 782.25 820.495 782.531 821.078C782.812 821.651 782.953 822.448 782.953 823.469C782.953 824.604 782.927 825.641 782.875 826.578C782.823 827.516 782.797 828.484 782.797 829.484C782.797 830.557 782.953 831.333 783.266 831.812C783.578 832.302 784.193 832.547 785.109 832.547H785.953V834H784.547Z" fill="#670418"/>
<path d="M885.016 834V832.547H885.906C886.812 832.547 887.422 832.302 887.734 831.812C888.047 831.333 888.203 830.557 888.203 829.484C888.203 828.484 888.172 827.516 888.109 826.578C888.047 825.641 888.016 824.604 888.016 823.469C888.016 822.448 888.161 821.651 888.453 821.078C888.755 820.495 889.255 820.104 889.953 819.906V819.766C889.255 819.568 888.755 819.193 888.453 818.641C888.161 818.078 888.016 817.266 888.016 816.203C888.016 815.068 888.047 814.031 888.109 813.094C888.172 812.156 888.203 811.182 888.203 810.172C888.203 809.099 888.047 808.323 887.734 807.844C887.422 807.354 886.812 807.109 885.906 807.109H885.016V805.656H886.422C887.724 805.656 888.687 805.958 889.312 806.562C889.937 807.167 890.25 808.328 890.25 810.047C890.25 811.234 890.198 812.318 890.094 813.297C890 814.276 889.953 815.333 889.953 816.469C889.953 817.104 890.146 817.688 890.531 818.219C890.917 818.75 891.672 819.016 892.797 819.016V820.656C891.672 820.656 890.917 820.927 890.531 821.469C890.146 822 889.953 822.589 889.953 823.234C889.953 824.359 890 825.411 890.094 826.391C890.198 827.37 890.25 828.448 890.25 829.625C890.25 831.333 889.937 832.49 889.312 833.094C888.687 833.698 887.724 834 886.422 834H885.016Z" fill="#670418"/>
<path d="M981.609 834.266L972.641 805.594H974.484L983.453 834.266H981.609Z" fill="#670418"/>
<path d="M240.109 894.453L239.75 907.125L239.687 910.094H242.266L241.859 894.453H240.109ZM240.969 887.609C240.458 887.609 240.016 887.786 239.641 888.141C239.276 888.505 239.094 888.984 239.094 889.578C239.094 890.172 239.276 890.656 239.641 891.031C240.016 891.406 240.458 891.594 240.969 891.594C241.49 891.594 241.932 891.406 242.297 891.031C242.672 890.656 242.859 890.172 242.859 889.578C242.859 888.984 242.672 888.505 242.297 888.141C241.932 887.786 241.49 887.609 240.969 887.609Z" fill="#670418"/>
<path d="M332.687 894.453C332.823 895.495 332.76 896.417 332.5 897.219C332.229 898.021 331.859 898.75 331.391 899.406C330.911 900.073 330.422 900.703 329.922 901.297C329.422 901.891 329 902.49 328.656 903.094C328.302 903.708 328.125 904.37 328.125 905.078C328.125 905.984 328.401 906.76 328.953 907.406C329.495 908.052 330.307 908.375 331.391 908.375C332.13 908.375 332.828 908.203 333.484 907.859C334.141 907.526 334.729 907.062 335.25 906.469L336.703 907.781C336.016 908.552 335.208 909.193 334.281 909.703C333.344 910.224 332.281 910.484 331.094 910.484C329.448 910.484 328.13 910.01 327.141 909.062C326.151 908.115 325.656 906.844 325.656 905.25C325.656 904.385 325.833 903.604 326.187 902.906C326.542 902.208 326.979 901.547 327.5 900.922C328.01 900.297 328.51 899.661 329 899.016C329.49 898.38 329.88 897.693 330.172 896.953C330.463 896.214 330.552 895.38 330.437 894.453H332.687ZM331.5 887.609C332.01 887.609 332.453 887.792 332.828 888.156C333.193 888.531 333.375 889.005 333.375 889.578C333.375 890.172 333.193 890.656 332.828 891.031C332.453 891.406 332.01 891.594 331.5 891.594C330.969 891.594 330.521 891.406 330.156 891.031C329.792 890.656 329.609 890.172 329.609 889.578C329.609 889.005 329.792 888.531 330.156 888.156C330.521 887.792 330.969 887.609 331.5 887.609Z" fill="#670418"/>
<path d="M411.484 898.391C410.974 898.391 410.531 898.214 410.156 897.859C409.792 897.495 409.609 897.016 409.609 896.422C409.609 895.828 409.792 895.344 410.156 894.969C410.531 894.594 410.974 894.406 411.484 894.406C411.995 894.406 412.432 894.594 412.797 894.969C413.172 895.344 413.359 895.828 413.359 896.422C413.359 897.016 413.172 897.495 412.797 897.859C412.432 898.214 411.995 898.391 411.484 898.391ZM409.672 915.531L409.016 914.016C409.922 913.599 410.635 913.036 411.156 912.328C411.677 911.63 411.927 910.833 411.906 909.938L411.609 907.562L412.937 909.484C412.76 909.714 412.552 909.865 412.312 909.938C412.073 910 411.828 910.031 411.578 910.031C411.088 910.031 410.651 909.88 410.266 909.578C409.891 909.276 409.703 908.828 409.703 908.234C409.703 907.672 409.891 907.229 410.266 906.906C410.651 906.573 411.099 906.406 411.609 906.406C412.307 906.406 412.849 906.682 413.234 907.234C413.63 907.786 413.828 908.536 413.828 909.484C413.828 910.87 413.453 912.083 412.703 913.125C411.953 914.167 410.943 914.969 409.672 915.531Z" fill="#670418"/>
<path d="M502.484 898.391C501.974 898.391 501.531 898.214 501.156 897.859C500.792 897.495 500.609 897.016 500.609 896.422C500.609 895.828 500.792 895.344 501.156 894.969C501.531 894.594 501.974 894.406 502.484 894.406C502.995 894.406 503.432 894.594 503.797 894.969C504.172 895.344 504.359 895.828 504.359 896.422C504.359 897.016 504.172 897.495 503.797 897.859C503.432 898.214 502.995 898.391 502.484 898.391ZM502.484 910.391C501.974 910.391 501.531 910.214 501.156 909.859C500.792 909.495 500.609 909.016 500.609 908.422C500.609 907.828 500.792 907.344 501.156 906.969C501.531 906.594 501.974 906.406 502.484 906.406C502.995 906.406 503.432 906.594 503.797 906.969C504.172 907.344 504.359 907.828 504.359 908.422C504.359 909.016 504.172 909.495 503.797 909.859C503.432 910.214 502.995 910.391 502.484 910.391Z" fill="#670418"/>
<path d="M590.25 895.562L589.484 894.375C590.297 893.823 590.906 893.234 591.312 892.609C591.729 891.974 591.937 891.188 591.937 890.25L591.531 888.109L592.891 889.75C592.516 890.125 592.109 890.312 591.672 890.312C591.224 890.312 590.828 890.172 590.484 889.891C590.151 889.609 589.984 889.214 589.984 888.703C589.984 888.151 590.141 887.724 590.453 887.422C590.766 887.109 591.172 886.953 591.672 886.953C592.286 886.953 592.766 887.203 593.109 887.703C593.463 888.203 593.641 888.911 593.641 889.828C593.641 891.12 593.344 892.24 592.75 893.188C592.167 894.125 591.333 894.917 590.25 895.562Z" fill="#670418"/>
<path d="M685.937 895.562L685.172 894.375C685.984 893.823 686.594 893.234 687 892.609C687.417 891.974 687.625 891.188 687.625 890.25L687.219 888.109L688.578 889.75C688.203 890.125 687.797 890.312 687.359 890.312C686.911 890.312 686.516 890.172 686.172 889.891C685.838 889.609 685.672 889.214 685.672 888.703C685.672 888.151 685.828 887.724 686.141 887.422C686.453 887.109 686.859 886.953 687.359 886.953C687.974 886.953 688.453 887.203 688.797 887.703C689.151 888.203 689.328 888.911 689.328 889.828C689.328 891.12 689.031 892.24 688.437 893.188C687.854 894.125 687.021 894.917 685.937 895.562ZM691.562 895.562L690.797 894.375C691.609 893.823 692.219 893.234 692.625 892.609C693.042 891.974 693.25 891.188 693.25 890.25L692.844 888.109L694.203 889.75C693.828 890.125 693.422 890.312 692.984 890.312C692.536 890.312 692.141 890.172 691.797 889.891C691.463 889.609 691.297 889.214 691.297 888.703C691.297 888.151 691.453 887.724 691.766 887.422C692.078 887.109 692.484 886.953 692.984 886.953C693.599 886.953 694.078 887.203 694.422 887.703C694.776 888.203 694.953 888.911 694.953 889.828C694.953 891.12 694.656 892.24 694.062 893.188C693.479 894.125 692.646 894.917 691.562 895.562Z" fill="#670418"/>
<path d="M793.531 905.625L779.469 900.078V898.031L793.531 892.5V894.703L782.078 898.984V899.125L793.531 903.406V905.625Z" fill="#670418"/>
<path d="M874.469 905.625V903.406L881.531 900.766L885.953 899.125V898.984L881.531 897.344L874.469 894.703V892.5L888.531 898.031V900.078L874.469 905.625Z" fill="#670418"/>
<path d="M859.547 995.266L868.547 966.594H870.391L861.391 995.266H859.547Z" fill="#670418"/>
<path d="M954.109 983.547L953.75 970.875L953.687 967.906H956.266L955.859 983.547H954.109ZM954.969 990.391C954.458 990.391 954.016 990.214 953.641 989.859C953.276 989.495 953.094 989.016 953.094 988.422C953.094 987.828 953.276 987.344 953.641 986.969C954.016 986.594 954.458 986.406 954.969 986.406C955.49 986.406 955.932 986.594 956.297 986.969C956.672 987.344 956.859 987.828 956.859 988.422C956.859 989.016 956.672 989.495 956.297 989.859C955.932 990.214 955.49 990.391 954.969 990.391Z" fill="#670418"/>
<path d="M1048.31 983.547C1048.18 982.505 1048.24 981.583 1048.5 980.781C1048.77 979.979 1049.14 979.25 1049.61 978.594C1050.09 977.927 1050.58 977.297 1051.08 976.703C1051.58 976.109 1052 975.51 1052.34 974.906C1052.7 974.292 1052.87 973.63 1052.87 972.922C1052.87 972.016 1052.6 971.24 1052.05 970.594C1051.51 969.948 1050.69 969.625 1049.61 969.625C1048.87 969.625 1048.17 969.797 1047.52 970.141C1046.86 970.474 1046.27 970.938 1045.75 971.531L1044.3 970.219C1044.98 969.448 1045.79 968.807 1046.72 968.297C1047.66 967.776 1048.72 967.516 1049.91 967.516C1051.55 967.516 1052.87 967.99 1053.86 968.938C1054.85 969.885 1055.34 971.156 1055.34 972.75C1055.34 973.615 1055.17 974.396 1054.81 975.094C1054.46 975.792 1054.02 976.453 1053.5 977.078C1052.99 977.703 1052.49 978.339 1052 978.984C1051.51 979.62 1051.12 980.307 1050.83 981.047C1050.54 981.786 1050.45 982.62 1050.56 983.547H1048.31ZM1049.5 990.391C1048.99 990.391 1048.55 990.208 1048.17 989.844C1047.81 989.469 1047.62 988.995 1047.62 988.422C1047.62 987.828 1047.81 987.344 1048.17 986.969C1048.55 986.594 1048.99 986.406 1049.5 986.406C1050.03 986.406 1050.48 986.594 1050.84 986.969C1051.21 987.344 1051.39 987.828 1051.39 988.422C1051.39 988.995 1051.21 989.469 1050.84 989.844C1050.48 990.208 1050.03 990.391 1049.5 990.391Z" fill="#670418"/>
<path d="M1224.67 980.531L1224.02 979.016C1224.92 978.599 1225.64 978.036 1226.16 977.328C1226.68 976.63 1226.93 975.833 1226.91 974.938L1226.61 972.562L1227.94 974.484C1227.76 974.714 1227.55 974.865 1227.31 974.938C1227.07 975 1226.83 975.031 1226.58 975.031C1226.09 975.031 1225.65 974.88 1225.27 974.578C1224.89 974.276 1224.7 973.828 1224.7 973.234C1224.7 972.672 1224.89 972.229 1225.27 971.906C1225.65 971.573 1226.1 971.406 1226.61 971.406C1227.31 971.406 1227.85 971.682 1228.23 972.234C1228.63 972.786 1228.83 973.536 1228.83 974.484C1228.83 975.87 1228.45 977.083 1227.7 978.125C1226.95 979.167 1225.94 979.969 1224.67 980.531Z" fill="#670418"/>
<path d="M933.038 906V903.408H935.366V906H933.038ZM939.033 902.4V897.12C939.033 894.72 940.233 893.52 942.633 893.52H947.337L948.297 894.24V895.2H942.633C941.513 895.2 940.953 895.76 940.953 896.88V902.64C940.953 903.76 941.513 904.32 942.633 904.32H948.297V905.28L947.337 906H942.633C940.233 906 939.033 904.8 939.033 902.4ZM951.126 902.4V897.12C951.126 894.72 952.326 893.52 954.726 893.52H958.086C960.486 893.52 961.686 894.72 961.686 897.12V902.4C961.686 904.8 960.486 906 958.086 906H954.726C952.326 906 951.126 904.8 951.126 902.4ZM953.046 902.64C953.046 903.76 953.606 904.32 954.726 904.32H958.086C959.206 904.32 959.766 903.76 959.766 902.64V896.88C959.766 895.76 959.206 895.2 958.086 895.2H954.726C953.606 895.2 953.046 895.76 953.046 896.88V902.64ZM965.334 906V893.52H979.494C981.894 893.52 983.094 894.72 983.094 897.12V906H981.174V896.88C981.174 895.76 980.614 895.2 979.494 895.2H975.174V906H973.254V895.2H967.254V906H965.334Z" fill="#670418"/>
<path d="M1141.5 823L1151.46 841.75H1131.54L1141.5 823Z" fill="white"/>
<path d="M1116.5 1008L1126.46 989.25H1106.54L1116.5 1008Z" fill="white"/>
<path d="M1029 914.5L1047.75 904.541V924.459L1029 914.5Z" fill="white"/>
<path d="M1236 914.5L1217.25 924.459V904.541L1236 914.5Z" fill="white"/>
<path d="M1263.5 736.5V766.5H1227.63L1211.22 751.5L1227.63 736.5H1263.5Z" stroke="white" stroke-width="3"/>
<path fill-rule="evenodd" clip-rule="evenodd" d="M1127.52 737.937C1132.78 731.897 1141.77 731.115 1147.6 736.192C1152.55 740.503 1153.63 747.653 1150.63 753.41L1161.87 763.201C1163.33 764.47 1163.49 766.681 1162.22 768.139C1160.95 769.597 1158.74 769.75 1157.28 768.481L1146.03 758.69C1140.74 762.462 1133.51 762.377 1128.56 758.066C1122.73 752.989 1122.26 743.977 1127.52 737.937ZM1129.78 739.907C1125.55 744.773 1126.02 751.879 1130.53 755.803C1135.04 759.727 1142.14 759.217 1146.38 754.351C1150.61 749.485 1150.14 742.379 1145.63 738.455C1141.12 734.53 1134.02 735.04 1129.78 739.907Z" fill="white"/>
<path d="M1256 849H1227.5V856.325L1211 845.5L1227.5 834.675V843H1250V818H1256V849Z" fill="#D9D9D9"/>
</svg>
