<svg width="394" height="833" viewBox="0 0 394 833" fill="none" xmlns="http://www.w3.org/2000/svg">
<rect width="394" height="833" rx="85" fill="#DC143C"/>
<path d="M96 36.5H297C340.907 36.5 376.5 72.0934 376.5 116V501.5H16.5V116C16.5 72.0934 52.0934 36.5 96 36.5Z" fill="black" stroke="black"/>
<rect x="144" y="51" width="107" height="19" rx="9" fill="#B5B5B5"/>
<rect x="43.5" y="127.5" width="308" height="341" fill="#B9958D" stroke="black"/>
<rect x="89.5" y="502.5" width="215" height="93" fill="#1E1E1E"/>
<rect x="89.5" y="502.5" width="215" height="93" stroke="black"/>
<rect x="89.5" y="502.5" width="215" height="93" stroke="black"/>
<rect x="89.5" y="502.5" width="215" height="93" stroke="black"/>
<rect x="89.5" y="502.5" width="215" height="93" stroke="black"/>
<rect x="15.5" y="502.5" width="74" height="93" fill="#1E1E1E"/>
<rect x="15.5" y="502.5" width="74" height="93" stroke="black"/>
<rect x="15.5" y="502.5" width="74" height="93" stroke="black"/>
<rect x="15.5" y="502.5" width="74" height="93" stroke="black"/>
<rect x="15.5" y="502.5" width="74" height="93" stroke="black"/>
<rect x="304.5" y="502.5" width="73" height="93" fill="#1E1E1E"/>
<rect x="304.5" y="502.5" width="73" height="93" stroke="black"/>
<rect x="304.5" y="502.5" width="73" height="93" stroke="black"/>
<rect x="304.5" y="502.5" width="73" height="93" stroke="black"/>
<rect x="304.5" y="502.5" width="73" height="93" stroke="black"/>
<rect x="15.5" y="595.5" width="362" height="49" fill="#1E1E1E"/>
<rect x="15.5" y="595.5" width="362" height="49" stroke="black"/>
<rect x="15.5" y="595.5" width="362" height="49" stroke="black"/>
<rect x="15.5" y="595.5" width="362" height="49" stroke="black"/>
<rect x="15.5" y="595.5" width="362" height="49" stroke="black"/>
<rect x="15.5" y="644.5" width="362" height="49" fill="#1E1E1E"/>
<rect x="15.5" y="644.5" width="362" height="49" stroke="black"/>
<rect x="15.5" y="644.5" width="362" height="49" stroke="black"/>
<rect x="15.5" y="644.5" width="362" height="49" stroke="black"/>
<rect x="15.5" y="644.5" width="362" height="49" stroke="black"/>
<rect x="15.5" y="693.5" width="362" height="49" fill="#1E1E1E"/>
<rect x="15.5" y="693.5" width="362" height="49" stroke="black"/>
<rect x="15.5" y="693.5" width="362" height="49" stroke="black"/>
<rect x="15.5" y="693.5" width="362" height="49" stroke="black"/>
<rect x="15.5" y="693.5" width="362" height="49" stroke="black"/>
<path d="M377.5 742.5V751C377.5 773.368 359.368 791.5 337 791.5H56C33.6325 791.5 15.5 773.368 15.5 751V742.5H377.5Z" fill="#1E1E1E"/>
<path d="M377.5 742.5V751C377.5 773.368 359.368 791.5 337 791.5H56C33.6325 791.5 15.5 773.368 15.5 751V742.5H377.5Z" stroke="black"/>
<path d="M377.5 742.5V751C377.5 773.368 359.368 791.5 337 791.5H56C33.6325 791.5 15.5 773.368 15.5 751V742.5H377.5Z" stroke="black"/>
<path d="M377.5 742.5V751C377.5 773.368 359.368 791.5 337 791.5H56C33.6325 791.5 15.5 773.368 15.5 751V742.5H377.5Z" stroke="black"/>
<path d="M377.5 742.5V751C377.5 773.368 359.368 791.5 337 791.5H56C33.6325 791.5 15.5 773.368 15.5 751V742.5H377.5Z" stroke="black"/>
<path d="M317.786 548.546L316.45 541.675C315.712 537.88 318.191 534.205 321.986 533.468L356.343 526.789C360.138 526.052 363.812 528.53 364.55 532.325L365.885 539.196" stroke="#670418" stroke-width="5"/>
<path d="M29.8657 534.477L29.134 541.439C28.7299 545.284 31.5192 548.728 35.364 549.132L70.1723 552.791C74.0171 553.195 77.4615 550.406 77.8656 546.561L78.5973 539.599" stroke="#048A42" stroke-width="5"/>
<rect x="158" y="514" width="77" height="69" rx="12" fill="#111111" stroke="#CCCCCC" stroke-width="4"/>
<path d="M336.928 554.882C332.729 556.389 330 560.13 330 564.091C330 569.229 334.591 574 341.027 574C347.464 574 352.055 569.229 352.055 564.091C352.055 560.369 349.646 556.842 345.873 555.179V549.876C352.356 551.786 357.055 557.428 357.055 564.091L357.049 564.475C356.829 572.532 349.741 579 341.027 579L340.613 578.995C332.091 578.794 325.221 572.404 325.005 564.475L325 564.091C325 557.175 330.062 551.36 336.928 549.675V554.882Z" fill="#670418"/>
<rect x="339" y="540" width="5" height="20" fill="#670418"/>
<path d="M176.304 632V624.44C176.304 621.416 177.624 619.64 180.264 619.112L187.644 617.636C188.868 617.396 189.48 616.592 189.48 615.224V612.344C189.48 610.712 188.664 609.896 187.032 609.896H177.024V608.42L178.644 607.16H186.996C190.668 607.16 192.504 608.996 192.504 612.668V615.008C192.504 618.032 191.184 619.808 188.544 620.336L181.164 621.812C179.94 622.052 179.328 622.856 179.328 624.224V629.264H192.504V632H176.304Z" fill="white"/>
<path d="M195.133 631.712L198.749 620.96H200.957L204.573 631.712L204.381 632H203.277L202.365 629.216H197.341L196.429 632H195.325L195.133 631.712ZM197.741 628H201.965L200.045 622.176H199.661L197.741 628Z" fill="white"/>
<path d="M206.331 632V620.96H211.403C213.035 620.96 213.851 621.776 213.851 623.408V624.512C213.851 624.875 213.744 625.184 213.531 625.44L212.971 626.112L213.643 626.672C213.995 626.96 214.171 627.387 214.171 627.952V629.552C214.171 631.184 213.355 632 211.723 632H206.331ZM207.675 630.784H211.739C212.464 630.784 212.827 630.421 212.827 629.696V627.904C212.827 627.179 212.464 626.816 211.739 626.816H207.675V630.784ZM207.675 625.6H211.419C212.144 625.6 212.507 625.237 212.507 624.512V623.264C212.507 622.539 212.144 622.176 211.419 622.176H207.675V625.6Z" fill="white"/>
<path d="M216.468 629.552V623.408C216.468 621.776 217.284 620.96 218.916 620.96H223.428L224.148 621.52V622.176H218.9C218.174 622.176 217.812 622.539 217.812 623.264V629.696C217.812 630.421 218.174 630.784 218.9 630.784H224.148V631.44L223.428 632H218.916C217.284 632 216.468 631.184 216.468 629.552Z" fill="white"/>
<path d="M298.44 632V620.96H302.76C305.427 620.96 306.76 622.293 306.76 624.96V628C306.76 630.667 305.427 632 302.76 632H298.44ZM299.784 630.784H302.84C304.558 630.784 305.416 629.925 305.416 628.208V624.752C305.416 623.035 304.558 622.176 302.84 622.176H299.784V630.784Z" fill="white"/>
<path d="M309.315 632V620.96H316.515V622.176H310.659V625.6H316.035V626.816H310.659V630.784H316.515V632H309.315Z" fill="white"/>
<path d="M318.753 632V620.96H325.953V622.176H320.097V626.08H325.473V627.296H320.097V632H318.753Z" fill="white"/>
<path d="M329.102 630.74V629.264H339.47C341.102 629.264 341.918 628.448 341.918 626.816V622.784C341.918 621.152 341.102 620.336 339.47 620.336H331.766V617.6H339.47C341.102 617.6 341.918 616.784 341.918 615.152V612.344C341.918 610.712 341.102 609.896 339.47 609.896H329.462V608.42L331.082 607.16H339.434C343.106 607.16 344.942 608.996 344.942 612.668V615.296C344.942 616.256 344.642 617.036 344.042 617.636L342.782 618.896L344.042 620.156C344.642 620.756 344.942 621.536 344.942 622.496V626.492C344.942 630.164 343.106 632 339.434 632H330.722L329.102 630.74Z" fill="white"/>
<path d="M49.3042 680.356V677.836L57.6202 660.16H60.1402L60.5362 660.88L52.6522 677.62H62.4802V669.52H65.5042V685H62.4802V680.356H49.3042Z" fill="white"/>
<path d="M69.0927 682.552V676.408C69.0927 674.776 69.9087 673.96 71.5407 673.96H76.3727L77.0927 674.52V675.176H71.5247C70.7994 675.176 70.4367 675.539 70.4367 676.264V682.696C70.4367 683.421 70.7994 683.784 71.5247 683.784H76.0687V679.816H73.3487V678.6H77.4127V685H71.5407C69.9087 685 69.0927 684.184 69.0927 682.552Z" fill="white"/>
<path d="M79.9715 685V673.96H81.3155V678.6H86.9475V673.96H88.2915V685H86.9475V679.816H81.3155V685H79.9715Z" fill="white"/>
<path d="M91.1746 685V673.96H92.5186V685H91.1746Z" fill="white"/>
<path d="M176.944 683.74V682.264H188.032C189.664 682.264 190.48 681.448 190.48 679.816V675.424C190.48 673.792 189.664 672.976 188.032 672.976H177.304V660.16H192.424V662.896H180.328V670.24H187.996C191.668 670.24 193.504 672.076 193.504 675.748V679.492C193.504 683.164 191.668 685 187.996 685H178.564L176.944 683.74Z" fill="white"/>
<path d="M196.773 682.552V680.84H198.117V682.696C198.117 683.421 198.479 683.784 199.205 683.784H201.701C202.426 683.784 202.789 683.421 202.789 682.696V675.176H199.173V673.96H204.133V682.552C204.133 684.184 203.317 685 201.685 685H199.221C197.589 685 196.773 684.184 196.773 682.552Z" fill="white"/>
<path d="M206.909 685V673.96H208.253V679.624L213.325 673.96H214.557L214.701 674.264L210.893 678.504L215.069 684.696L214.941 685H213.693L210.013 679.48L208.253 681.416V685H206.909Z" fill="white"/>
<path d="M216.987 685V673.96H218.331V683.784H223.707V685H216.987Z" fill="white"/>
<path d="M291.44 685V673.96H293.216L296.912 681.8L300.592 673.96H302.368V685H301.024V675.976L297.536 683.4H296.272L292.784 675.976V685H291.44Z" fill="white"/>
<path d="M305.253 685V673.96H306.741L312.549 682.92V673.96H313.893V685H312.405L306.597 676.04V685H305.253Z" fill="white"/>
<path d="M316.608 682.552V676.408C316.608 674.776 317.424 673.96 319.056 673.96H322.8C324.432 673.96 325.248 674.776 325.248 676.408V682.552C325.248 684.184 324.432 685 322.8 685H319.056C317.424 685 316.608 684.184 316.608 682.552ZM317.952 682.696C317.952 683.421 318.315 683.784 319.04 683.784H322.816C323.542 683.784 323.904 683.421 323.904 682.696V676.264C323.904 675.539 323.542 675.176 322.816 675.176H319.04C318.315 675.176 317.952 675.539 317.952 676.264V682.696Z" fill="white"/>
<path d="M328.835 679.492V666.784C328.835 662.368 331.043 660.16 335.459 660.16H341.975L343.595 661.42V662.896H335.315C333.011 662.896 331.859 664.048 331.859 666.352V670.24H339.527C343.199 670.24 345.035 672.076 345.035 675.748V679.492C345.035 683.164 343.199 685 339.527 685H334.343C330.671 685 328.835 683.164 328.835 679.492ZM331.859 679.816C331.859 681.448 332.675 682.264 334.307 682.264H339.563C341.195 682.264 342.011 681.448 342.011 679.816V675.424C342.011 673.792 341.195 672.976 339.563 672.976H331.859V679.816Z" fill="white"/>
<path d="M49.3042 710.896V708.16H65.5042V714.46L55.7842 733H53.0842L52.6882 732.28L62.4802 713.776V710.896H49.3042Z" fill="white"/>
<path d="M69.2527 733V721.96H74.4847C76.1167 721.96 76.9327 722.776 76.9327 724.408V726.488C76.9327 728.12 76.1167 728.936 74.4847 728.936H70.5967V733H69.2527ZM70.5967 727.72H74.5007C75.226 727.72 75.5887 727.357 75.5887 726.632V724.264C75.5887 723.539 75.226 723.176 74.5007 723.176H70.5967V727.72Z" fill="white"/>
<path d="M79.1708 730.552V724.408C79.1708 722.776 79.9868 721.96 81.6188 721.96H85.3628C86.9948 721.96 87.8108 722.776 87.8108 724.408V730.568C87.8108 732.051 87.1122 732.845 85.7148 732.952L86.8028 735.08L86.6268 735.4H85.4908L84.2748 733H81.6188C79.9868 733 79.1708 732.184 79.1708 730.552ZM80.5148 730.696C80.5148 731.421 80.8775 731.784 81.6028 731.784H85.3788C86.1042 731.784 86.4668 731.421 86.4668 730.696V724.264C86.4668 723.539 86.1042 723.176 85.3788 723.176H81.6028C80.8775 723.176 80.5148 723.539 80.5148 724.264V730.696Z" fill="white"/>
<path d="M90.534 733V721.96H95.766C97.398 721.96 98.214 722.776 98.214 724.408V726.168C98.214 727.555 97.622 728.344 96.438 728.536L98.534 732.68L98.358 733H97.222L94.998 728.616H91.878V733H90.534ZM91.878 727.4H95.782C96.5073 727.4 96.87 727.037 96.87 726.312V724.264C96.87 723.539 96.5073 723.176 95.782 723.176H91.878V727.4Z" fill="white"/>
<path d="M100.288 732.44V731.784H105.216C105.942 731.784 106.304 731.421 106.304 730.696V729.4C106.304 728.792 106.032 728.435 105.488 728.328L102.048 727.624C100.875 727.389 100.288 726.605 100.288 725.272V724.408C100.288 722.776 101.104 721.96 102.736 721.96H106.608L107.328 722.52V723.176H102.72C101.995 723.176 101.632 723.539 101.632 724.264V725.352C101.632 725.96 101.904 726.317 102.448 726.424L105.888 727.112C107.062 727.347 107.648 728.136 107.648 729.48V730.552C107.648 732.184 106.832 733 105.2 733H101.008L100.288 732.44Z" fill="white"/>
<path d="M176.304 727.492V723.496C176.304 722.536 176.604 721.756 177.204 721.156L178.464 719.896L177.204 718.636C176.604 718.036 176.304 717.256 176.304 716.296V713.668C176.304 709.996 178.14 708.16 181.812 708.16H186.996C190.668 708.16 192.504 709.996 192.504 713.668V716.296C192.504 717.256 192.204 718.036 191.604 718.636L190.344 719.896L191.604 721.156C192.204 721.756 192.504 722.536 192.504 723.496V727.492C192.504 731.164 190.668 733 186.996 733H181.812C178.14 733 176.304 731.164 176.304 727.492ZM179.328 727.816C179.328 729.448 180.144 730.264 181.776 730.264H187.032C188.664 730.264 189.48 729.448 189.48 727.816V723.784C189.48 722.152 188.664 721.336 187.032 721.336H181.776C180.144 721.336 179.328 722.152 179.328 723.784V727.816ZM179.328 716.152C179.328 717.784 180.144 718.6 181.776 718.6H187.032C188.664 718.6 189.48 717.784 189.48 716.152V713.344C189.48 711.712 188.664 710.896 187.032 710.896H181.776C180.144 710.896 179.328 711.712 179.328 713.344V716.152Z" fill="white"/>
<path d="M195.197 723.176V721.96H203.901V723.176H200.221V733H198.877V723.176H195.197Z" fill="white"/>
<path d="M205.625 730.552V721.96H206.969V730.696C206.969 731.421 207.332 731.784 208.057 731.784H211.513C212.239 731.784 212.601 731.421 212.601 730.696V721.96H213.945V730.552C213.945 732.184 213.129 733 211.497 733H208.073C206.441 733 205.625 732.184 205.625 730.552Z" fill="white"/>
<path d="M215.617 722.248L215.809 721.96H216.961L220.065 731.784H220.449L223.569 721.96H224.705L224.897 722.248L221.409 733H219.105L215.617 722.248Z" fill="white"/>
<path d="M283.48 722.248L283.688 721.96H284.76L287.064 731.784H287.272L289.688 723.176H291.032L293.432 731.784H293.656L295.96 721.96H297.032L297.24 722.248L294.696 733H292.472L290.36 725.352L288.248 733H286.024L283.48 722.248Z" fill="white"/>
<path d="M298.199 732.696L301.847 727.32L298.407 722.264L298.551 721.96H299.719L302.599 726.28L305.479 721.96H306.647L306.791 722.264L303.351 727.32L306.999 732.696L306.855 733H305.687L302.599 728.36L299.511 733H298.343L298.199 732.696Z" fill="white"/>
<path d="M307.805 722.248L307.981 721.96H309.117L312.125 727.544L315.133 721.96H316.269L316.445 722.248L312.797 728.904V733H311.453V728.904L307.805 722.248Z" fill="white"/>
<path d="M317.566 733V731.928L323.742 723.176H317.726V721.96H325.406V723.032L319.23 731.784H325.566V733H317.566Z" fill="white"/>
<path d="M328.664 717.412V713.668C328.664 709.996 330.5 708.16 334.172 708.16H339.356C343.028 708.16 344.864 709.996 344.864 713.668V726.376C344.864 730.792 342.656 733 338.24 733H331.364L329.744 731.74V730.264H338.384C340.688 730.264 341.84 729.112 341.84 726.808V722.92H334.172C330.5 722.92 328.664 721.084 328.664 717.412ZM331.688 717.736C331.688 719.368 332.504 720.184 334.136 720.184H341.84V713.344C341.84 711.712 341.024 710.896 339.392 710.896H334.136C332.504 710.896 331.688 711.712 331.688 713.344V717.736Z" fill="white"/>
<path d="M81.0315 777.844L78.5002 776.062L82.219 769.937L75.9377 767.281L76.8752 764.469L83.5315 766.094L84.1252 759.031H87.1565L87.7502 766.031L94.4065 764.469L95.4065 767.281L89.0002 769.937L92.7502 776.062L90.2502 777.844L85.719 772.312L81.0315 777.844Z" fill="white"/>
<path d="M191.25 779.358C189.324 779.358 187.683 778.834 186.328 777.786C184.973 776.729 183.938 775.199 183.222 773.196C182.506 771.185 182.148 768.756 182.148 765.909C182.148 763.08 182.506 760.663 183.222 758.661C183.946 756.649 184.986 755.115 186.341 754.058C187.705 752.993 189.341 752.46 191.25 752.46C193.159 752.46 194.791 752.993 196.147 754.058C197.51 755.115 198.55 756.649 199.266 758.661C199.99 760.663 200.352 763.08 200.352 765.909C200.352 768.756 199.995 771.185 199.279 773.196C198.563 775.199 197.527 776.729 196.172 777.786C194.817 778.834 193.176 779.358 191.25 779.358ZM191.25 776.545C193.159 776.545 194.642 775.625 195.699 773.784C196.756 771.943 197.284 769.318 197.284 765.909C197.284 763.642 197.041 761.712 196.556 760.118C196.078 758.524 195.388 757.31 194.485 756.474C193.59 755.639 192.512 755.222 191.25 755.222C189.358 755.222 187.879 756.155 186.814 758.021C185.749 759.879 185.216 762.509 185.216 765.909C185.216 768.176 185.455 770.102 185.932 771.687C186.409 773.273 187.095 774.479 187.99 775.305C188.894 776.132 189.98 776.545 191.25 776.545Z" fill="white"/>
<path d="M202.5 780.2H203.78V782.46H214.46V780.2H215.74V783.88H202.5V780.2Z" fill="white"/>
<path d="M311 779L311.813 772.25H309.141V770.437H312.016L312.641 765.453H309.813V763.672H312.844L313.625 757.562H315.281L314.516 763.672H318.969L319.766 757.562H321.422L320.656 763.672H323.297V765.453H320.453L319.828 770.437H322.641V772.25H319.61L318.813 779H317.125L317.953 772.25H313.469L312.672 779H311ZM313.703 770.437H318.156L318.781 765.453H314.328L313.703 770.437Z" fill="white"/>
<path d="M53.2282 632V607.016H56.5762V632H53.2282ZM48.1162 610.04V607.016H56.2162V610.04H48.1162Z" fill="white"/>
<path d="M63.9983 632.439C63.424 632.439 62.926 632.24 62.5041 631.842C62.094 631.432 61.8889 630.893 61.8889 630.225C61.8889 629.557 62.094 629.012 62.5041 628.59C62.926 628.168 63.424 627.957 63.9983 627.957C64.5725 627.957 65.0647 628.168 65.4748 628.59C65.8967 629.012 66.1076 629.557 66.1076 630.225C66.1076 630.893 65.8967 631.432 65.4748 631.842C65.0647 632.24 64.5725 632.439 63.9983 632.439Z" fill="white"/>
<path d="M86.7463 634.539C85.6734 634.539 84.702 634.312 83.8322 633.859C82.9624 633.406 82.2697 632.742 81.7541 631.867C81.2437 630.992 80.9885 629.922 80.9885 628.656C80.9885 627.552 81.1682 626.555 81.5276 625.664C81.8921 624.773 82.3921 624.008 83.0276 623.367C83.663 622.727 84.3895 622.237 85.2072 621.898C86.0302 621.555 86.8999 621.383 87.8166 621.383C88.9156 621.383 89.8661 621.612 90.6682 622.07C91.4755 622.523 92.0979 623.159 92.5354 623.977C92.9729 624.789 93.1916 625.734 93.1916 626.812C93.1916 627.531 93.0927 628.164 92.8947 628.711C92.6968 629.253 92.4364 629.708 92.1135 630.078C91.7958 630.443 91.4468 630.719 91.0666 630.906C90.6864 631.089 90.3114 631.18 89.9416 631.18C89.4885 631.18 89.1057 631.076 88.7932 630.867C88.4859 630.659 88.3036 630.346 88.2463 629.93H88.2151C87.9442 630.247 87.6343 630.516 87.2854 630.734C86.9364 630.953 86.5796 631.062 86.2151 631.062C85.663 631.062 85.1942 630.865 84.8088 630.469C84.4286 630.068 84.2385 629.492 84.2385 628.742C84.2385 628.31 84.3114 627.87 84.4572 627.422C84.6031 626.974 84.814 626.562 85.0901 626.187C85.3661 625.807 85.6968 625.503 86.0822 625.273C86.4677 625.044 86.9026 624.93 87.3869 624.93C87.9703 624.93 88.4156 625.193 88.7229 625.719H88.7541L88.9416 625.062H89.7776L89.1369 628.328C88.8296 629.646 89.1369 630.305 90.0588 630.305C90.4078 630.305 90.7515 630.167 91.0901 629.891C91.4338 629.615 91.7177 629.221 91.9416 628.711C92.1708 628.195 92.2854 627.578 92.2854 626.859C92.2854 625.964 92.1109 625.169 91.7619 624.477C91.413 623.779 90.8973 623.232 90.2151 622.836C89.538 622.44 88.7046 622.242 87.7151 622.242C86.9807 622.242 86.2671 622.393 85.5744 622.695C84.8869 622.992 84.2671 623.422 83.7151 623.984C83.1682 624.542 82.7333 625.211 82.4104 625.992C82.0874 626.773 81.926 627.646 81.926 628.609C81.926 629.677 82.1395 630.589 82.5666 631.344C82.9989 632.099 83.5848 632.674 84.3244 633.07C85.0692 633.466 85.9104 633.664 86.8479 633.664C87.3583 633.664 87.8401 633.596 88.2932 633.461C88.7515 633.326 89.1656 633.146 89.5354 632.922L89.8791 633.68C88.9364 634.253 87.8921 634.539 86.7463 634.539ZM86.4494 630.172C86.6786 630.172 86.9208 630.094 87.176 629.937C87.4364 629.781 87.7151 629.531 88.0119 629.187L88.4807 626.531C88.314 626.266 88.1473 626.081 87.9807 625.977C87.8192 625.872 87.6265 625.82 87.4026 625.82C86.9598 625.82 86.577 625.971 86.2541 626.273C85.9364 626.57 85.6916 626.94 85.5197 627.383C85.3479 627.82 85.2619 628.25 85.2619 628.672C85.2619 629.208 85.3739 629.594 85.5979 629.828C85.827 630.057 86.1109 630.172 86.4494 630.172Z" fill="white"/>
<path d="M96.676 628.773C96.6083 628.253 96.6395 627.792 96.7697 627.391C96.9052 626.99 97.0901 626.625 97.3244 626.297C97.564 625.964 97.8088 625.648 98.0588 625.352C98.3088 625.055 98.5197 624.755 98.6916 624.453C98.8687 624.146 98.9572 623.815 98.9572 623.461C98.9572 623.008 98.8192 622.62 98.5432 622.297C98.2723 621.974 97.8661 621.812 97.3244 621.812C96.9546 621.812 96.6057 621.898 96.2776 622.07C95.9494 622.237 95.6552 622.469 95.3947 622.766L94.6682 622.109C95.0119 621.724 95.4156 621.404 95.8791 621.148C96.3479 620.888 96.8791 620.758 97.4729 620.758C98.2958 620.758 98.9546 620.995 99.4494 621.469C99.9442 621.943 100.192 622.578 100.192 623.375C100.192 623.807 100.103 624.198 99.926 624.547C99.7489 624.896 99.5302 625.227 99.2697 625.539C99.0145 625.852 98.7645 626.169 98.5197 626.492C98.2749 626.81 98.0796 627.154 97.9338 627.523C97.788 627.893 97.7437 628.31 97.801 628.773H96.676ZM97.2697 632.195C97.0145 632.195 96.7932 632.104 96.6057 631.922C96.4234 631.734 96.3322 631.497 96.3322 631.211C96.3322 630.914 96.4234 630.672 96.6057 630.484C96.7932 630.297 97.0145 630.203 97.2697 630.203C97.5354 630.203 97.7593 630.297 97.9416 630.484C98.1239 630.672 98.2151 630.914 98.2151 631.211C98.2151 631.497 98.1239 631.734 97.9416 631.922C97.7593 632.104 97.5354 632.195 97.2697 632.195Z" fill="white"/>
</svg>
